<?xml version="1.0" standalone="no"?>
<!DOCTYPE svg PUBLIC "-//W3C//DTD SVG 20010904//EN"
 "http://www.w3.org/TR/2001/REC-SVG-20010904/DTD/svg10.dtd">
<svg version="1.0" xmlns="http://www.w3.org/2000/svg"
 width="800.000000pt" height="600.000000pt" viewBox="0 0 800.000000 600.000000"
 preserveAspectRatio="xMidYMid meet">

<g transform="translate(0.000000,600.000000) scale(0.100000,-0.100000)"
fill="#000000" stroke="none">
<path d="M3070 4436 c-30 -19 -81 -49 -112 -65 -32 -17 -65 -42 -74 -55 -45
-70 -55 -331 -28 -746 24 -368 24 -394 -10 -460 -26 -50 -28 -61 -23 -130 3
-42 21 -128 42 -195 50 -167 65 -279 65 -485 0 -146 4 -187 21 -250 12 -41 24
-109 27 -150 l7 -74 36 -11 c45 -12 75 -39 99 -85 24 -47 51 -70 95 -80 44
-10 90 2 122 32 18 17 23 32 23 73 0 100 20 218 39 232 44 30 52 72 50 260 -2
196 8 243 59 283 33 27 95 26 139 -1 50 -31 72 -83 84 -200 5 -56 17 -115 25
-130 8 -16 39 -47 69 -69 66 -49 80 -73 116 -213 39 -148 61 -187 120 -208 25
-10 63 -29 84 -43 49 -34 82 -33 132 4 72 53 82 90 79 270 -2 85 -7 222 -11
303 -8 140 -10 151 -37 192 -24 36 -36 45 -79 55 -40 10 -57 21 -87 58 -20 25
-54 65 -75 88 -56 62 -42 87 58 109 49 11 107 81 154 189 39 90 43 105 47 199
2 64 11 125 23 163 32 100 35 194 12 315 -12 59 -26 163 -31 232 -13 176 -55
274 -162 377 -143 139 -280 180 -607 180 l-186 0 -100 35 c-55 19 -111 35
-125 35 -14 0 -50 -15 -80 -34z m519 -631 c13 -41 23 -54 59 -73 23 -13 74
-28 112 -34 41 -6 75 -17 84 -27 8 -9 20 -50 27 -90 19 -128 -8 -270 -71 -374
-53 -86 -252 -239 -277 -213 -4 4 -11 94 -15 199 -4 106 -14 236 -23 290 -17
113 -20 255 -5 309 12 41 44 70 74 66 14 -2 24 -18 35 -53z"/>
<path d="M795 4428 c-77 -28 -168 -114 -183 -173 -14 -49 6 -630 23 -700 9
-38 16 -131 18 -255 4 -180 3 -201 -18 -275 -33 -115 -38 -162 -25 -235 14
-79 30 -106 74 -124 24 -10 37 -24 45 -48 16 -51 15 -194 -4 -284 -20 -99 -11
-142 40 -204 40 -47 42 -62 18 -116 -11 -26 -16 -68 -17 -124 0 -93 11 -125
61 -171 58 -55 79 -62 196 -69 100 -6 118 -10 168 -38 82 -47 115 -44 213 21
l80 52 121 5 c137 6 152 13 212 98 44 61 51 94 55 249 3 127 2 132 -21 157
-14 14 -48 34 -77 43 -56 17 -59 17 -224 -31 -63 -18 -137 -21 -175 -6 -15 6
-53 34 -86 63 l-59 52 0 126 c0 157 17 200 94 238 46 23 52 24 123 13 48 -8
87 -21 111 -37 42 -29 89 -32 135 -10 47 22 78 74 87 147 4 35 18 103 30 152
34 135 14 206 -57 206 -13 0 -37 10 -53 22 -25 18 -33 20 -55 10 -35 -16 -97
-15 -170 3 -33 8 -81 14 -107 15 -122 1 -156 138 -58 231 32 30 51 39 107 49
80 15 210 1 305 -31 32 -10 64 -19 73 -19 41 0 144 79 171 131 8 16 14 47 14
69 0 23 5 51 12 63 7 12 15 65 20 117 17 218 26 288 43 335 36 105 16 201 -51
232 -31 15 -45 16 -132 4 -173 -24 -206 -25 -240 -7 -44 23 -101 20 -179 -10
-84 -31 -175 -41 -240 -25 -26 7 -88 31 -138 54 -79 36 -100 42 -170 44 -44 1
-93 -3 -110 -9z"/>
<path d="M5244 4353 c-41 -39 -53 -58 -59 -92 -13 -78 18 -700 42 -840 11 -65
13 -120 9 -173 -8 -98 4 -147 49 -197 53 -58 67 -101 55 -158 -6 -26 -20 -67
-31 -92 -10 -24 -19 -52 -19 -63 0 -10 -10 -56 -21 -101 -19 -72 -21 -98 -15
-212 3 -71 18 -188 32 -260 13 -71 31 -193 38 -270 16 -161 23 -183 66 -216
17 -13 51 -41 74 -61 49 -43 85 -48 129 -19 39 25 54 50 77 124 11 36 44 100
73 143 71 107 79 126 84 224 4 66 0 103 -16 167 -37 145 -25 225 39 258 45 23
185 55 243 55 64 0 103 14 217 82 117 69 175 144 207 265 21 80 53 139 114
208 59 68 102 153 119 241 10 47 9 89 -2 211 -14 140 -18 156 -44 194 -58 83
-65 99 -71 156 -3 32 -14 74 -24 94 -44 87 -174 163 -312 181 -83 10 -90 13
-114 45 -14 19 -35 39 -45 44 -36 19 -123 31 -293 39 -155 7 -176 10 -235 35
-57 25 -80 29 -190 32 l-125 4 -51 -48z m789 -656 c40 -17 59 -40 62 -75 1
-15 3 -34 3 -43 1 -9 15 -36 32 -60 18 -26 30 -57 30 -77 0 -107 -182 -418
-276 -468 -32 -17 -34 -17 -55 1 -21 19 -21 24 -15 185 5 134 3 177 -10 230
-24 98 -27 147 -14 195 28 98 145 152 243 112z"/>
<path d="M2358 1980 c-49 -15 -141 -73 -190 -120 -38 -37 -48 -53 -48 -79 0
-46 15 -68 67 -101 25 -16 56 -45 69 -64 32 -47 80 -57 123 -27 16 12 44 24
63 28 77 14 179 90 205 150 31 75 -1 172 -67 205 -38 19 -170 24 -222 8z"/>
<path d="M4728 1976 c-59 -21 -127 -65 -179 -115 -39 -38 -49 -54 -49 -80 0
-46 15 -68 67 -101 25 -16 56 -45 69 -64 32 -46 81 -57 120 -27 14 11 42 23
63 27 78 14 182 89 208 151 31 75 0 169 -67 204 -42 23 -175 25 -232 5z"/>
<path d="M7029 1976 c-72 -28 -182 -109 -213 -158 -16 -25 -17 -34 -7 -68 9
-31 22 -46 56 -66 25 -14 59 -43 75 -65 40 -50 85 -60 128 -29 16 12 49 26 73
31 59 13 143 70 175 118 37 56 41 106 12 160 -37 72 -64 86 -171 88 -59 2
-105 -2 -128 -11z"/>
</g>
</svg>
