<?xml version="1.0" standalone="no"?>
<!DOCTYPE svg PUBLIC "-//W3C//DTD SVG 20010904//EN"
 "http://www.w3.org/TR/2001/REC-SVG-20010904/DTD/svg10.dtd">
<svg version="1.0" xmlns="http://www.w3.org/2000/svg"
 width="800.000000pt" height="600.000000pt" viewBox="0 0 800.000000 600.000000"
 preserveAspectRatio="xMidYMid meet">

<g transform="translate(0.000000,600.000000) scale(0.100000,-0.100000)"
fill="#000000" stroke="none">
<path d="M0 3000 l0 -3000 4000 0 4000 0 0 3000 0 3000 -4000 0 -4000 0 0
-3000z m3290 1435 c71 -26 84 -27 232 -26 389 4 582 -69 720 -272 63 -93 78
-135 88 -259 6 -62 20 -169 31 -237 25 -145 22 -260 -10 -359 -15 -44 -21 -90
-21 -148 0 -91 -21 -161 -81 -274 -41 -76 -65 -98 -141 -124 -39 -13 -64 -28
-66 -38 -3 -16 93 -143 134 -179 11 -9 35 -19 55 -23 36 -6 61 -28 95 -80 14
-23 19 -50 19 -115 1 -47 7 -180 13 -295 13 -241 9 -260 -66 -328 -44 -40 -44
-40 -107 -43 -22 -2 -58 -8 -80 -15 -106 -34 -227 51 -280 194 -8 23 -24 67
-36 99 -11 32 -47 93 -79 135 -72 97 -84 120 -108 215 -11 42 -29 94 -39 114
-20 39 -85 84 -100 69 -4 -4 -8 -94 -8 -199 0 -173 -2 -195 -20 -224 -10 -18
-23 -33 -27 -33 -17 0 -28 -44 -38 -160 -6 -74 -16 -133 -25 -146 -18 -28 -77
-48 -124 -41 -23 3 -44 -1 -56 -9 -23 -17 -88 -18 -118 -3 -78 41 -171 153
-197 236 -32 104 -50 231 -50 358 0 173 -15 288 -60 476 -46 190 -48 237 -19
380 21 101 21 110 8 339 -20 344 -19 669 3 741 25 81 87 146 190 199 46 24
103 57 127 73 76 52 106 52 241 2z m-2207 -42 c92 -42 111 -47 187 -51 75 -3
96 0 178 27 102 34 135 37 172 16 29 -17 111 -19 195 -5 86 14 160 14 193 1
37 -16 72 -78 72 -128 0 -22 -7 -62 -16 -89 -15 -46 -21 -92 -43 -334 -5 -52
-16 -117 -25 -144 -9 -27 -16 -63 -16 -80 0 -37 -21 -70 -75 -118 -51 -45 -97
-69 -132 -67 -16 1 -45 -6 -65 -15 -47 -20 -75 -20 -213 0 -70 11 -128 14
-158 10 -43 -7 -50 -11 -63 -41 -23 -55 -18 -100 14 -137 22 -24 37 -31 63
-30 19 0 78 -8 131 -19 81 -16 105 -17 147 -7 43 10 53 9 68 -4 10 -9 34 -19
53 -23 43 -9 77 -39 85 -75 3 -15 -5 -73 -19 -131 -13 -57 -27 -130 -31 -162
-12 -98 -71 -160 -153 -163 -26 -1 -64 -9 -84 -18 -47 -20 -52 -20 -172 1
l-99 17 -18 -23 c-16 -20 -19 -41 -19 -156 l0 -133 58 -50 c32 -28 75 -55 98
-61 47 -12 130 -2 219 29 73 25 138 25 192 1 71 -33 75 -48 68 -213 -8 -159
-18 -193 -82 -268 -40 -46 -85 -70 -133 -70 -17 0 -48 -9 -70 -20 -21 -11 -71
-25 -112 -31 -41 -6 -91 -21 -115 -35 -23 -13 -53 -24 -66 -24 -14 0 -41 -7
-60 -15 -52 -21 -116 -19 -247 10 -230 52 -264 68 -314 149 -29 47 -31 54 -34
180 -2 93 -8 152 -23 203 -16 60 -19 97 -17 232 l2 160 -58 116 c-71 144 -77
183 -47 345 26 140 28 334 5 530 -8 74 -18 248 -21 385 -5 217 -4 258 11 308
20 68 77 137 141 169 22 12 55 32 73 46 57 43 128 63 205 58 55 -4 89 -15 170
-53z m4426 6 c35 -5 91 -21 125 -35 53 -23 82 -27 231 -34 232 -12 254 -17
313 -72 46 -43 52 -46 126 -53 63 -5 92 -15 154 -47 43 -22 88 -50 100 -62 41
-36 70 -98 81 -170 7 -47 19 -81 38 -109 61 -86 62 -91 73 -208 5 -63 10 -144
10 -180 0 -109 -50 -228 -136 -321 -49 -53 -84 -121 -113 -223 -21 -72 -87
-170 -133 -198 -13 -8 -52 -32 -88 -55 -74 -46 -267 -114 -378 -132 -39 -6
-81 -19 -93 -29 -31 -25 -34 -85 -10 -182 49 -190 37 -281 -54 -414 -32 -48
-65 -112 -81 -157 -36 -108 -107 -168 -168 -140 -16 7 -27 6 -41 -4 -24 -18
-98 -18 -133 0 -69 36 -117 120 -133 233 -6 43 -22 148 -36 233 -50 318 -49
448 2 650 34 134 33 203 -4 288 -38 88 -49 130 -56 232 -3 47 -13 153 -20 235
-20 211 -38 618 -30 679 13 96 47 151 117 187 20 10 57 37 83 59 45 39 48 40
118 40 40 0 101 -5 136 -11z m-2976 -2408 c82 -14 148 -105 133 -184 -14 -77
-106 -161 -208 -192 -25 -7 -58 -21 -72 -30 -30 -20 -120 -45 -161 -45 -90 0
-195 94 -195 174 0 76 29 106 199 207 121 72 192 88 304 70z m2380 0 c56 -9
92 -39 119 -99 14 -31 18 -54 13 -82 -14 -80 -102 -164 -207 -195 -25 -7 -58
-21 -72 -30 -30 -20 -120 -45 -161 -45 -51 0 -131 44 -164 91 -25 33 -31 52
-31 90 0 42 5 55 35 87 19 22 61 53 92 71 32 18 80 46 107 62 83 51 167 67
269 50z m2362 -19 c60 -36 91 -129 64 -199 -12 -33 -71 -96 -116 -124 -17 -11
-55 -27 -85 -35 -29 -9 -60 -22 -68 -29 -18 -16 -127 -45 -166 -45 -73 1 -177
85 -189 154 -11 54 24 116 88 159 102 67 216 128 258 137 62 13 177 3 214 -18z"/>
<path d="M3477 3667 c-2 -18 0 -66 5 -107 21 -180 28 -253 34 -392 4 -81 10
-148 14 -148 16 0 100 83 129 128 53 82 73 155 75 262 1 84 -2 100 -23 138
-27 46 -81 85 -173 125 l-56 25 -5 -31z"/>
<path d="M5801 3598 c-22 -58 -22 -89 0 -165 18 -64 21 -99 19 -198 -2 -66 -4
-141 -4 -167 -1 -25 3 -50 8 -55 22 -21 135 154 168 260 31 102 14 202 -49
285 -45 60 -126 83 -142 40z"/>
</g>
</svg>
